<?xml version="1.0"?>
<!--Icons from directory ""-->
<svg xmlns="http://www.w3.org/2000/svg" width="16" height="48" viewBox="0 0 16 48"><svg xmlns:rdf="http://www.w3.org/1999/02/22-rdf-syntax-ns#" xmlns:cc="http://creativecommons.org/ns#" xmlns:dc="http://purl.org/dc/elements/1.1/" id="facebook" enable-background="new 0 0 16 16" xml:space="preserve" height="16" viewBox="0 0 16 16" width="16" version="1.1" y="0" x="0px"><path id="facebook-path2995" fill="#666" d="m8 0c-4.418 0-8 3.582-8 8s3.582 8 8 8 8-3.582 8-8c0-4.419-3.582-8-8-8zm2.068 7.999l-1.311 0.001-0.001 4.8h-1.799v-4.8h-1.2v-1.654l1.2-0.001-0.002-0.974c0-1.35 0.366-2.171 1.955-2.171h1.324v1.655h-0.828c-0.619 0-0.649 0.231-0.649 0.662l-0.002 0.828h1.488l-0.175 1.654z"/></svg><svg xmlns:rdf="http://www.w3.org/1999/02/22-rdf-syntax-ns#" xmlns:cc="http://creativecommons.org/ns#" xmlns:dc="http://purl.org/dc/elements/1.1/" id="instagram" height="16" width="16" version="1.1" y="16"><g id="instagram-layer1"><g id="instagram-instagram-g3003" fill="#666" transform="translate(-.069788 -47.885)"><path id="instagram-instagram-path3005" d="m8.0882 57.513c0.88262 0 1.6022-0.71828 1.6022-1.6015 0-0.34867-0.11407-0.67059-0.30323-0.93354-0.29131-0.40345-0.76436-0.66801-1.2986-0.66801-0.5346 0-1.0073 0.26424-1.299 0.66769-0.18948 0.26295-0.30259 0.58487-0.30291 0.93354-0.0003259 0.88327 0.7186 1.6019 1.6015 1.6019z"/><polygon id="instagram-instagram-polygon3007" points="38.064 21.149 38.081 25.936 42.852 25.92 42.852 21.754 42.852 21.134 42.228 21.136" transform="matrix(.32224 0 0 .32224 -2.2232 45.6)"/><path id="instagram-instagram-path3009" d="m8.0886 47.911c-4.4112 0-8 3.5888-8 8s3.5888 8 8 8 8-3.5888 8-8-3.5888-8-8-8zm4.5497 7.0665v3.7251c0 0.97027-0.78885 1.7588-1.7585 1.7588h-5.5829c-0.96995 0-1.7585-0.78853-1.7585-1.7588v-5.5825c0-0.96995 0.78853-1.7585 1.7585-1.7585h5.5822c0.96995 0 1.7588 0.78853 1.7588 1.7585v1.8574z"/><path id="instagram-instagram-path3011" d="m10.577 55.911c0 1.3718-1.1159 2.4887-2.4884 2.4887-1.3724 0-2.4884-1.1169-2.4884-2.4887 0-0.32998 0.065738-0.64545 0.18303-0.93354h-1.3582v3.7251c0 0.48143 0.39088 0.87134 0.87199 0.87134h5.5822c0.48111 0 0.87199-0.38991 0.87199-0.87134v-3.7251h-1.3586c0.11762 0.28808 0.18432 0.60356 0.18432 0.93354z"/></g></g></svg><svg xmlns:rdf="http://www.w3.org/1999/02/22-rdf-syntax-ns#" xmlns:cc="http://creativecommons.org/ns#" xmlns:dc="http://purl.org/dc/elements/1.1/" id="pinterest" enable-background="new 0 0 16 16" xml:space="preserve" height="16" viewBox="0 0 16 16" width="16" version="1.1" y="32" x="0px"><path id="pinterest-path2995" fill="#666" d="m8 0c-4.418 0-8 3.582-8 8s3.582 8 8 8 8-3.582 8-8c0-4.419-3.582-8-8-8zm0.624 10.163c-0.585-0.045-0.83-0.335-1.288-0.614-0.252 1.322-0.56 2.59-1.472 3.251-0.282-1.997 0.413-3.497 0.736-5.09-0.55-0.927 0.066-2.79 1.226-2.331 1.427 0.565-1.237 3.443 0.552 3.803 1.867 0.375 2.63-3.241 1.472-4.417-1.674-1.698-4.87-0.039-4.477 2.392 0.096 0.594 0.709 0.774 0.245 1.595-1.071-0.236-1.391-1.082-1.35-2.208 0.066-1.843 1.656-3.133 3.251-3.312 2.017-0.226 3.909 0.74 4.17 2.637 0.295 2.141-0.91 4.461-3.065 4.294z"/></svg></svg>
