<svg xmlns="http://www.w3.org/2000/svg" width="16" height="48" viewBox="0 0 16 48"><svg xmlns:rdf="http://www.w3.org/1999/02/22-rdf-syntax-ns#" xmlns:cc="http://creativecommons.org/ns#" xmlns:dc="http://purl.org/dc/elements/1.1/" height="16" viewBox="0 0 16 16" width="16"><path fill="#666" d="M8 0C3.582 0 0 3.582 0 8s3.582 8 8 8 8-3.582 8-8c0-4.42-3.582-8-8-8zm2.068 8h-1.31l-.002 4.8h-1.8V8h-1.2V6.346h1.2V5.37c0-1.35.365-2.17 1.954-2.17h1.324v1.655h-.828c-.62 0-.65.23-.65.662v.828h1.487L10.068 8z"/></svg><svg xmlns:rdf="http://www.w3.org/1999/02/22-rdf-syntax-ns#" xmlns:cc="http://creativecommons.org/ns#" xmlns:dc="http://purl.org/dc/elements/1.1/" height="16" width="16" y="16"><g fill="#666"><path d="M8.018 9.628c.883 0 1.603-.718 1.603-1.6 0-.35-.113-.672-.303-.935-.29-.403-.764-.668-1.298-.668-.536 0-1.01.264-1.3.668-.19.263-.303.585-.303.933 0 .883.718 1.602 1.6 1.602z"/><path d="M9.964 4.525l.005 1.54 1.535-.004V4.52h-.2z"/><path d="M8.02.026c-4.412 0-8 3.59-8 8s3.588 8 8 8 8-3.59 8-8-3.59-8-8-8zm4.618 54.95v3.727c0 .97-.79 1.758-1.758 1.758H5.297c-.97 0-1.76-.787-1.76-1.757V53.12c0-.97.79-1.758 1.76-1.758h5.582c.97 0 1.758.788 1.758 1.758v1.857z"/><path d="M10.507 8.026c0 1.372-1.116 2.49-2.488 2.49-1.374 0-2.49-1.118-2.49-2.49 0-.33.066-.645.183-.934H4.355v3.726c0 .48.39.87.872.87h5.582c.48 0 .87-.39.87-.87V7.092h-1.357c.117.29.184.604.184.934z"/></g></svg><svg xmlns:rdf="http://www.w3.org/1999/02/22-rdf-syntax-ns#" xmlns:cc="http://creativecommons.org/ns#" xmlns:dc="http://purl.org/dc/elements/1.1/" height="16" viewBox="0 0 16 16" width="16" y="32"><path fill="#666" d="M8 0C3.582 0 0 3.582 0 8s3.582 8 8 8 8-3.582 8-8c0-4.42-3.582-8-8-8zm.624 10.163c-.585-.045-.83-.335-1.288-.614-.252 1.32-.56 2.59-1.472 3.25-.282-1.997.413-3.497.736-5.09-.55-.927.066-2.79 1.226-2.33 1.427.564-1.237 3.442.552 3.802 1.867.375 2.63-3.24 1.472-4.417-1.674-1.698-4.87-.04-4.477 2.392.096.594.71.774.245 1.595-1.07-.236-1.39-1.082-1.35-2.208.066-1.843 1.656-3.133 3.25-3.312 2.018-.226 3.91.74 4.17 2.637.296 2.14-.91 4.46-3.064 4.293z"/></svg></svg>