<svg xmlns="http://www.w3.org/2000/svg" width="16" height="16"><g fill="#666"><path d="M8.018 9.628c.883 0 1.603-.718 1.603-1.6 0-.35-.113-.672-.303-.935-.29-.403-.764-.668-1.298-.668-.536 0-1.01.264-1.3.668-.19.263-.303.585-.303.933 0 .884.718 1.602 1.6 1.602z"/><path d="M9.964 4.525l.005 1.54 1.535-.004V4.52h-.2z"/><path d="M8.02.026c-4.412 0-8 3.59-8 8s3.588 8 8 8c4.41 0 8-3.59 8-8s-3.59-8-8-8zm4.618 54.95v3.727c0 .97-.79 1.758-1.758 1.758H5.297c-.97 0-1.758-.787-1.758-1.757V53.12c0-.97.787-1.758 1.757-1.758h5.582c.97 0 1.758.788 1.758 1.758v1.857z"/><path d="M10.507 8.026c0 1.372-1.116 2.49-2.488 2.49-1.374 0-2.49-1.118-2.49-2.49 0-.33.066-.645.183-.933H4.355v3.725c0 .48.39.87.872.87h5.582c.48 0 .87-.39.87-.87V7.093h-1.357c.117.288.184.603.184.933z"/></g></svg>