<?xml version="1.0" encoding="UTF-8" standalone="no"?>
<!-- Created with Inkscape (http://www.inkscape.org/) -->

<svg
   xmlns:dc="http://purl.org/dc/elements/1.1/"
   xmlns:cc="http://creativecommons.org/ns#"
   xmlns:rdf="http://www.w3.org/1999/02/22-rdf-syntax-ns#"
   xmlns:svg="http://www.w3.org/2000/svg"
   xmlns="http://www.w3.org/2000/svg"
   xmlns:sodipodi="http://sodipodi.sourceforge.net/DTD/sodipodi-0.dtd"
   xmlns:inkscape="http://www.inkscape.org/namespaces/inkscape"
   width="16px"
   height="16px"
   id="svg3795"
   version="1.1"
   inkscape:version="0.48.5 r10040"
   sodipodi:docname="New document 4">
  <defs
     id="defs3797" />
  <sodipodi:namedview
     id="base"
     pagecolor="#ffffff"
     bordercolor="#666666"
     borderopacity="1.0"
     inkscape:pageopacity="0.0"
     inkscape:pageshadow="2"
     inkscape:zoom="51.9375"
     inkscape:cx="8.0188119"
     inkscape:cy="7.973762"
     inkscape:current-layer="layer1"
     showgrid="true"
     inkscape:grid-bbox="true"
     inkscape:document-units="px"
     inkscape:window-width="1920"
     inkscape:window-height="1018"
     inkscape:window-x="-8"
     inkscape:window-y="-8"
     inkscape:window-maximized="1" />
  <metadata
     id="metadata3800">
    <rdf:RDF>
      <cc:Work
         rdf:about="">
        <dc:format>image/svg+xml</dc:format>
        <dc:type
           rdf:resource="http://purl.org/dc/dcmitype/StillImage" />
        <dc:title></dc:title>
      </cc:Work>
    </rdf:RDF>
  </metadata>
  <g
     id="layer1"
     inkscape:label="Layer 1"
     inkscape:groupmode="layer">
    <g
       transform="translate(-0.06978805,-47.884762)"
       style="fill:#666666"
       id="instagram-g3003">
      <path
         inkscape:connector-curvature="0"
         id="instagram-path3005"
         d="m 8.0882,57.513 c 0.88262,0 1.6022,-0.71828 1.6022,-1.6015 0,-0.34867 -0.11407,-0.67059 -0.30323,-0.93354 -0.29131,-0.40345 -0.76436,-0.66801 -1.2986,-0.66801 -0.5346,0 -1.0073,0.26424 -1.299,0.66769 -0.18948,0.26295 -0.30259,0.58487 -0.30291,0.93354 -3.259e-4,0.88327 0.7186,1.6019 1.6015,1.6019 z" />
      <polygon
         id="instagram-polygon3007"
         transform="matrix(0.32224,0,0,0.32224,-2.2232,45.6)"
         points="38.064,21.149 38.081,25.936 42.852,25.92 42.852,21.754 42.852,21.134 42.228,21.136 " />
      <path
         inkscape:connector-curvature="0"
         id="instagram-path3009"
         d="m 8.0886,47.911 c -4.4112,0 -8,3.5888 -8,8 0,4.4112 3.5888,8 8,8 4.4112,0 8,-3.5888 8,-8 0,-4.4112 -3.5888,-8 -8,-8 z m 4.5497,7.0665 v 3.7251 c 0,0.97027 -0.78885,1.7588 -1.7585,1.7588 H 5.2971 c -0.96995,0 -1.7585,-0.78853 -1.7585,-1.7588 v -5.5825 c 0,-0.96995 0.78853,-1.7585 1.7585,-1.7585 h 5.5822 c 0.96995,0 1.7588,0.78853 1.7588,1.7585 v 1.8574 z" />
      <path
         inkscape:connector-curvature="0"
         id="instagram-path3011"
         d="m 10.577,55.911 c 0,1.3718 -1.1159,2.4887 -2.4884,2.4887 -1.3724,0 -2.4884,-1.1169 -2.4884,-2.4887 0,-0.32998 0.065738,-0.64545 0.18303,-0.93354 h -1.3582 v 3.7251 c 0,0.48143 0.39088,0.87134 0.87199,0.87134 h 5.5822 c 0.48111,0 0.87199,-0.38991 0.87199,-0.87134 v -3.7251 h -1.3586 c 0.11762,0.28808 0.18432,0.60356 0.18432,0.93354 z" />
    </g>
  </g>
</svg>
