<svg xmlns="http://www.w3.org/2000/svg" width="16" height="16" viewBox="0 0 16 16"><path d="M8 0C3.582 0 0 3.582 0 8s3.582 8 8 8 8-3.582 8-8c0-4.42-3.582-8-8-8zm.624 10.163c-.585-.045-.83-.335-1.288-.614-.252 1.32-.56 2.59-1.472 3.25-.282-1.997.413-3.497.736-5.09-.55-.927.066-2.79 1.226-2.33 1.427.564-1.237 3.442.552 3.802 1.867.375 2.63-3.24 1.472-4.417-1.674-1.698-4.87-.04-4.477 2.392.096.594.71.774.245 1.595-1.07-.236-1.39-1.082-1.35-2.208.066-1.843 1.656-3.133 3.25-3.312 2.018-.226 3.91.74 4.17 2.637.296 2.14-.91 4.46-3.064 4.293z" fill="#666"/></svg>