<?xml version="1.0" encoding="UTF-8" standalone="no"?>
<!-- Generator: Adobe Illustrator 16.0.4, SVG Export Plug-In . SVG Version: 6.00 Build 0)  -->

<svg
   xmlns:dc="http://purl.org/dc/elements/1.1/"
   xmlns:cc="http://creativecommons.org/ns#"
   xmlns:rdf="http://www.w3.org/1999/02/22-rdf-syntax-ns#"
   xmlns:svg="http://www.w3.org/2000/svg"
   xmlns="http://www.w3.org/2000/svg"
   xmlns:sodipodi="http://sodipodi.sourceforge.net/DTD/sodipodi-0.dtd"
   xmlns:inkscape="http://www.inkscape.org/namespaces/inkscape"
   version="1.1"
   id="Capa_1"
   x="0px"
   y="0px"
   width="16px"
   height="16px"
   viewBox="0 0 16 16"
   enable-background="new 0 0 16 16"
   xml:space="preserve"
   inkscape:version="0.48.5 r10040"
   sodipodi:docname="pinterest6.svg"><metadata
   id="metadata3001"><rdf:RDF><cc:Work
       rdf:about=""><dc:format>image/svg+xml</dc:format><dc:type
         rdf:resource="http://purl.org/dc/dcmitype/StillImage" /><dc:title></dc:title></cc:Work></rdf:RDF></metadata><defs
   id="defs2999" /><sodipodi:namedview
   pagecolor="#ffffff"
   bordercolor="#666666"
   borderopacity="1"
   objecttolerance="10"
   gridtolerance="10"
   guidetolerance="10"
   inkscape:pageopacity="0"
   inkscape:pageshadow="2"
   inkscape:window-width="954"
   inkscape:window-height="653"
   id="namedview2997"
   showgrid="false"
   inkscape:zoom="14.75"
   inkscape:cx="8"
   inkscape:cy="8"
   inkscape:window-x="0"
   inkscape:window-y="0"
   inkscape:window-maximized="0"
   inkscape:current-layer="Capa_1" />
<path
   d="M8,0C3.582,0,0,3.582,0,8s3.582,8,8,8s8-3.582,8-8C16,3.581,12.418,0,8,0z M8.624,10.163  c-0.585-0.045-0.83-0.335-1.288-0.614c-0.252,1.322-0.56,2.59-1.472,3.251C5.582,10.803,6.277,9.303,6.6,7.71  C6.05,6.783,6.666,4.92,7.826,5.379c1.427,0.565-1.237,3.443,0.552,3.803c1.867,0.375,2.63-3.241,1.472-4.417  C8.176,3.067,4.98,4.726,5.373,7.157c0.096,0.594,0.709,0.774,0.245,1.595C4.547,8.516,4.227,7.67,4.268,6.544  c0.066-1.843,1.656-3.133,3.251-3.312c2.017-0.226,3.909,0.74,4.17,2.637C11.984,8.01,10.779,10.33,8.624,10.163z"
   id="path2995"
   style="fill:#666666;fill-opacity:1" />
</svg>